{
  "asset": {
    "generator": "Khronos glTF Blender I/O v1.5.17",
    "version": "2.0"
  },
  "scene": 0,
  "scenes": [
    {
      "name": "Scene",
      "nodes": [
        0
      ]
    }
  ],
  "nodes": [
    {
      "mesh": 0,
      "name": "sphere_gltf"
    }
  ],
  "materials": [
    {
      "doubleSided": true,
      "name": "brick_floor_003",
      "normalTexture": {
        "index": 0
      },
      "pbrMetallicRoughness": {
        "baseColorTexture": {
          "index": 1
        },
        "metallicFactor": 0,
        "metallicRoughnessTexture": {
          "index": 2
        }
      }
    }
  ],
  "meshes": [
    {
      "name": "Sphere.001",
      "primitives": [
        {
          "attributes": {
            "POSITION": 0,
            "NORMAL": 1,
            "TEXCOORD_0": 2
          },
          "indices": 3,
          "material": 0
        }
      ]
    }
  ],
  "textures": [
    {
      "sampler": 0,
      "source": 0
    },
    {
      "sampler": 0,
      "source": 1
    },
    {
      "sampler": 0,
      "source": 2
    }
  ],
  "images": [
    {
      "mimeType": "image/jpeg",
      "name": "brick_floor_003_nor_gl_4k",
      "uri": "textures/brick_floor_003_nor_gl_1k.jpg"
    },
    {
      "mimeType": "image/jpeg",
      "name": "brick_floor_003_diffuse_4k",
      "uri": "textures/brick_floor_003_diffuse_1k.jpg"
    },
    {
      "mimeType": "image/jpeg",
      "name": "brick_floor_003_rough_4k",
      "uri": "textures/brick_floor_003_rough_1k.jpg"
    }
  ],
  "accessors": [
    {
      "bufferView": 0,
      "componentType": 5126,
      "count": 53854,
      "max": [
        1.0073821544647217,
        1.0069247484207153,
        1.0066605806350708
      ],
      "min": [
        -1.0073819160461426,
        -1.0072154998779297,
        -1.0066602230072021
      ],
      "type": "VEC3"
    },
    {
      "bufferView": 1,
      "componentType": 5126,
      "count": 53854,
      "type": "VEC3"
    },
    {
      "bufferView": 2,
      "componentType": 5126,
      "count": 53854,
      "type": "VEC2"
    },
    {
      "bufferView": 3,
      "componentType": 5123,
      "count": 322170,
      "type": "SCALAR"
    }
  ],
  "bufferViews": [
    {
      "buffer": 0,
      "byteLength": 646248,
      "byteOffset": 0
    },
    {
      "buffer": 0,
      "byteLength": 646248,
      "byteOffset": 646248
    },
    {
      "buffer": 0,
      "byteLength": 430832,
      "byteOffset": 1292496
    },
    {
      "buffer": 0,
      "byteLength": 644340,
      "byteOffset": 1723328
    }
  ],
  "samplers": [
    {
      "magFilter": 9729,
      "minFilter": 9987
    }
  ],
  "buffers": [
    {
      "byteLength": 2367668,
      "uri": "brick_floor_003.bin"
    }
  ]
}